<svg xmlns="http://www.w3.org/2000/svg"
 xmlns:xlink="http://www.w3.org/1999/xlink"
 width="331px" height="161px"  viewBox="0 0 331 161">
<path fill-rule="evenodd"  fill="#ffffff"
 d="M25.0,2.0 C25.0,2.0 326.0,2.0 326.0,2.0 C328.2091,2.0 329.99988,3.7905273 329.99988,6.0 C329.99988,6.0 329.99988,156.0 329.99988,156.0 C329.99988,158.20898 328.2091,160.0 326.0,160.0 C326.0,160.0 25.0,160.0 25.0,160.0 C22.790771,160.0 20.999939,158.20898 20.999939,156.0 C20.999939,156.0 20.999939,6.0 20.999939,6.0 C20.999939,3.7905273 22.790771,2.0 25.0,2.0 ZM27.999939,54.129883 C27.999939,54.129883 54.869995,80.99951 54.869995,80.99951 C54.869995,80.99951 27.999939,107.87012 27.999939,107.87012 C27.999939,107.87012 1.1298828,80.99951 1.1298828,80.99951 C1.1298828,80.99951 27.999939,54.129883 27.999939,54.129883 Z"/>
</svg>